<?xml version="1.0" standalone="no"?>
<!DOCTYPE svg PUBLIC "-//W3C//DTD SVG 20010904//EN"
 "http://www.w3.org/TR/2001/REC-SVG-20010904/DTD/svg10.dtd">
<svg version="1.0" xmlns="http://www.w3.org/2000/svg"
 width="240.000000pt" height="240.000000pt" viewBox="0 0 240.000000 240.000000"
 preserveAspectRatio="xMidYMid meet">
<metadata>
Created by potrace 1.11, written by Peter Selinger 2001-2013
</metadata>
<g transform="translate(0.000000,240.000000) scale(0.100000,-0.100000)"
fill="#000000" stroke="none">
<path d="M569 1975 c-3 -2 -17 -6 -32 -9 -91 -16 -202 -111 -250 -214 -87
-187 18 -406 187 -389 38 3 55 11 73 31 42 49 27 93 -42 126 -58 28 -79 66
-70 126 21 142 213 222 261 108 12 -29 12 -40 -2 -81 -19 -55 -88 -234 -109
-278 -45 -100 -115 -290 -115 -314 0 -39 33 -66 82 -66 34 0 45 6 72 37 17 20
51 88 75 150 25 62 48 118 51 123 4 6 15 33 25 60 10 28 21 53 25 58 3 4 30
-57 59 -135 154 -417 155 -418 210 -448 17 -8 76 -14 175 -15 83 -2 154 -3
158 -4 3 -1 -1 -19 -9 -40 l-15 -39 -177 -5 c-97 -2 -193 -9 -213 -16 -54 -17
-117 -69 -146 -121 -37 -66 -40 -174 -7 -240 45 -89 138 -141 253 -141 88 -1
157 22 227 75 70 53 114 114 167 229 20 43 25 47 57 48 20 0 145 0 277 1 220
0 245 2 273 19 53 32 65 86 26 124 l-24 25 -259 0 -260 0 75 183 c41 100 87
212 101 250 l27 67 67 0 c38 0 69 0 71 0 1 0 26 7 56 16 138 41 209 134 199
260 -9 110 -98 186 -217 185 -120 0 -197 -60 -266 -206 l-42 -91 -64 1 c-126
2 -183 -34 -173 -108 5 -45 17 -51 98 -57 l74 -5 -50 -121 -49 -121 -150 2
c-135 2 -152 4 -170 22 -11 11 -53 109 -93 219 -68 184 -72 200 -57 215 110
106 340 358 352 386 31 67 -12 123 -85 109 -37 -7 -100 -67 -350 -331 l-85
-90 25 70 c72 199 -23 353 -222 361 -39 2 -73 1 -75 -1z m1420 -439 c12 -30
-5 -69 -38 -89 -28 -16 -114 -31 -108 -18 53 116 79 144 120 133 10 -3 22 -14
26 -26z m-710 -996 c-56 -91 -134 -139 -204 -126 -70 14 -99 100 -49 147 23
21 37 25 127 29 56 3 114 3 129 1 l27 -3 -30 -48z"/>
</g>
</svg>
