<?xml version="1.0" encoding="utf-8"?>
<!-- Generator: Adobe Illustrator 22.0.1, SVG Export Plug-In . SVG Version: 6.00 Build 0)  -->
<svg version="1.1" id="Layer_1" xmlns="http://www.w3.org/2000/svg" xmlns:xlink="http://www.w3.org/1999/xlink" x="0px" y="0px"
	 viewBox="0 0 123 84.3" style="enable-background:new 0 0 123 84.3;" xml:space="preserve">
<style type="text/css">
	.st0{fill:#D5D5D5;}
	.st1{fill:#F2B138;}
</style>
<g>
	<path class="st0" d="M98.6,59.7H77.9l9-22.1H90c4.2,0,7.6-1,10.3-3.1c2.6-2.1,4-4.8,4-8.1c0-2.6-0.9-4.8-2.7-6.5
		c-1.8-1.7-4.1-2.6-6.8-2.6c-5.4,0-9.4,3.2-12,9.7l-1.4,3.4h-5.1c-1.7,0-3.1,0.4-4.1,1.1c-1,0.7-1.5,1.8-1.5,3.1c0,2,1.1,3,3.4,3
		h0.8h3.6l-4.5,11.1c-0.5-0.1-1.1-0.2-1.8-0.2h-9.7c-1.8,0-3-0.7-3.6-2.2l-6.3-17.2l14.3-14.9c1.6-1.7,2.4-3.1,2.4-4.3
		c0-1-0.3-1.8-1-2.4c-0.6-0.6-1.4-0.9-2.4-0.9c-1.4,0-2.9,0.9-4.6,2.7L45.5,25.6l1-2.5c1-2.6,1.6-4.9,1.6-6.9c0-2.9-1.1-5.3-3.3-7.2
		c-2.2-1.9-4.9-2.9-8.2-2.9c-4.4,0-8.2,1.6-11.5,4.9s-4.9,7.1-4.9,11.5c0,2.9,0.9,5.5,2.7,7.6c1.8,2.1,3.9,3.2,6.4,3.2
		c1.3,0,2.4-0.4,3.3-1.1c0.9-0.7,1.3-1.7,1.3-2.8c0-1.3-0.8-2.3-2.3-2.8c-2.5-0.9-3.7-2.5-3.7-4.8c0-2.1,0.8-4,2.4-5.7
		c1.6-1.7,3.5-2.6,5.5-2.6c1.1,0,2.1,0.4,3,1.1c0.8,0.7,1.3,1.6,1.3,2.5c0,1.1-0.6,3.1-1.8,6.1l-7.8,19.2l-0.4,0.9
		c-0.3,0.9-0.5,1.6-0.5,2.3c0,0.8,0.3,1.5,1,2.1c0.7,0.6,1.4,0.9,2.4,0.9c2.2,0,3.9-1.5,5.1-4.5l6.2-15.3l7.9,21.5
		c0.9,2.3,1.9,3.8,2.9,4.6c1.1,0.7,2.9,1.1,5.6,1.1h9.9c0.1,0,0.3,0,0.4,0l-1.6,3.9H58.9c-3.7,0-6.7,0.6-8.9,1.9c-1.7,1-3,2.3-4,4.1
		c-1,1.8-1.5,3.6-1.5,5.7c0,3.2,1.1,5.9,3.4,8c2.3,2.1,5.2,3.1,8.7,3.1c4.3,0,8.2-1.5,11.5-4.6c1.3-1.2,2.3-2.4,3.1-3.7
		c0.8-1.3,1.9-3.4,3.3-6.6l0.4-0.8h22.3c1.7,0,3.1-0.4,4.1-1.1c1-0.7,1.5-1.8,1.5-3.2C102.8,60.6,101.4,59.7,98.6,59.7z M90.6,28.4
		c1.1-2.8,2.4-4.2,3.7-4.2c1.5,0,2.2,0.8,2.2,2.4c0,1.1-0.5,2-1.6,2.7c-1.1,0.7-2.4,1.1-3.9,1.1h-1.4L90.6,28.4z M62.4,72.8
		c-1.6,1.5-3.4,2.2-5.1,2.2c-1.3,0-2.4-0.4-3.2-1.2c-0.9-0.8-1.3-1.7-1.3-2.9c0-2.8,2-4.2,5.9-4.2h7.9
		C65.4,69.4,64.1,71.4,62.4,72.8z"/>
	<path class="st1" d="M94.3,57.2H73.6l9-22.1h3.1c4.2,0,7.6-1,10.3-3.1c2.6-2.1,4-4.8,4-8.1c0-2.6-0.9-4.8-2.7-6.5
		c-1.8-1.7-4.1-2.6-6.8-2.6c-5.4,0-9.4,3.2-12,9.7L77,28h-5.1c-1.7,0-3.1,0.4-4.1,1.1c-1,0.7-1.5,1.8-1.5,3.1c0,2,1.1,3,3.4,3h0.8
		h3.6L69.7,46c0,0,0,0-0.1,0h-9.7c-1.8,0-3-0.7-3.6-2.2L50,26.6l14.3-14.9c1.6-1.7,2.4-3.1,2.4-4.3c0-1-0.3-1.8-1-2.4
		c-0.6-0.6-1.4-0.9-2.4-0.9c-1.4,0-2.9,0.9-4.6,2.7L43,23.2l1-2.5c1-2.6,1.6-4.9,1.6-6.9c0-2.9-1.1-5.3-3.3-7.2
		c-2.2-1.9-4.9-2.9-8.2-2.9c-4.4,0-8.2,1.6-11.5,4.9c-3.3,3.3-4.9,7.1-4.9,11.5c0,2.9,0.9,5.5,2.7,7.6c1.8,2.1,3.9,3.2,6.4,3.2
		c1.3,0,2.4-0.4,3.3-1.1c0.9-0.7,1.3-1.7,1.3-2.8c0-1.3-0.8-2.3-2.3-2.8c-2.5-0.9-3.7-2.5-3.7-4.8c0-2.1,0.8-4,2.4-5.7
		c1.6-1.7,3.5-2.6,5.5-2.6c1.1,0,2.1,0.4,3,1.1c0.8,0.7,1.3,1.6,1.3,2.5c0,1.1-0.6,3.1-1.8,6.1L28,39.8l-0.4,0.9
		c-0.3,0.9-0.5,1.6-0.5,2.3c0,0.8,0.3,1.5,1,2.1c0.7,0.6,1.4,0.9,2.4,0.9c2.2,0,3.9-1.5,5.1-4.5l6.2-15.3l7.9,21.5
		c0.9,2.3,1.9,3.8,2.9,4.6c1.1,0.7,2.9,1.1,5.6,1.1h8.5l-1.6,3.9H54.6c-3.7,0-6.7,0.6-8.9,1.9c-1.7,1-3,2.3-4,4.1
		c-1,1.8-1.5,3.6-1.5,5.7c0,3.2,1.1,5.9,3.4,8C46,79,48.9,80,52.4,80c4.3,0,8.2-1.5,11.5-4.6c1.3-1.2,2.3-2.4,3.1-3.7
		c0.8-1.3,1.9-3.4,3.3-6.6l0.4-0.8H93c1.7,0,3.1-0.4,4.1-1.1c1-0.7,1.5-1.8,1.5-3.2C98.5,58.2,97.1,57.2,94.3,57.2z M86.3,25.9
		c1.1-2.8,2.4-4.2,3.7-4.2c1.5,0,2.2,0.8,2.2,2.4c0,1.1-0.5,2-1.6,2.7c-1.1,0.7-2.4,1.1-3.9,1.1h-1.4L86.3,25.9z M58.1,70.4
		c-1.6,1.5-3.4,2.2-5.1,2.2c-1.3,0-2.4-0.4-3.2-1.2c-0.9-0.8-1.3-1.7-1.3-2.9c0-2.8,2-4.2,5.9-4.2h7.9
		C61.1,66.9,59.8,68.9,58.1,70.4z"/>
</g>
</svg>
