<?xml version="1.0" encoding="utf-8"?>
<!-- Generator: Adobe Illustrator 22.0.1, SVG Export Plug-In . SVG Version: 6.00 Build 0)  -->
<svg version="1.1" id="Layer_1" xmlns="http://www.w3.org/2000/svg" xmlns:xlink="http://www.w3.org/1999/xlink" x="0px" y="0px"
	 viewBox="0 0 131.3 84.3" style="enable-background:new 0 0 131.3 84.3;" xml:space="preserve">
<style type="text/css">
	.st0{font-family:'HarlowSolid';}
	.st1{font-size:71px;}
	.st2{fill:#F2B138;}
</style>
<text transform="matrix(1 0 0 1 51.6667 -26.8333)" class="st0 st1">K-live</text>
<path class="st2" d="M137-79.5h4.5h0.5c1.7,0,2.6,0.8,2.6,2.3c0,1.6-0.9,2.3-2.6,2.3h-0.5H137h-0.5c-0.8,0-1.4-0.2-1.9-0.6
	c-0.5-0.4-0.7-1-0.7-1.7c0-0.7,0.2-1.2,0.7-1.7c0.5-0.4,1.1-0.6,1.9-0.6H137z"/>
<g>
	<path class="st2" d="M33.3,32.6L39,48.1c0.5,1.3,1.6,2,3.3,2h8.8c2.6,0,3.8,0.9,3.8,2.7c0,1.2-0.5,2.2-1.4,2.9
		c-0.9,0.7-2.2,1-3.8,1h-9c-2.4,0-4.1-0.3-5-1s-1.9-2-2.7-4.1l-7.2-19.4L20.3,46c-1.1,2.7-2.6,4.1-4.6,4.1c-0.8,0-1.5-0.3-2.1-0.8
		c-0.6-0.5-0.9-1.2-0.9-1.9c0-0.6,0.2-1.3,0.5-2.1l0.3-0.8l7.1-17.4c1.1-2.6,1.6-4.5,1.6-5.5c0-0.9-0.4-1.7-1.2-2.3
		c-0.8-0.6-1.7-1-2.7-1c-1.8,0-3.5,0.8-5,2.3C11.7,22.3,11,24,11,25.9c0,2.1,1.1,3.6,3.4,4.4c1.4,0.5,2.1,1.3,2.1,2.6
		c0,1-0.4,1.8-1.2,2.5c-0.8,0.7-1.8,1-2.9,1c-2.3,0-4.2-1-5.8-2.9c-1.6-1.9-2.4-4.2-2.4-6.9c0-4,1.5-7.4,4.4-10.4
		c3-3,6.4-4.4,10.4-4.4c3,0,5.4,0.9,7.4,2.6c2,1.7,3,3.9,3,6.5c0,1.8-0.5,3.9-1.4,6.2L27,29.4l14.2-14.9c1.5-1.6,2.9-2.4,4.2-2.4
		c0.9,0,1.6,0.3,2.2,0.9c0.6,0.6,0.9,1.3,0.9,2.2c0,1.1-0.7,2.4-2.2,3.9L33.3,32.6z"/>
	<path class="st2" d="M60.3,44l-6.4,15.7h14.8c2,0,3,0.7,3,2.1c0,1-0.3,1.7-1,2.3c-0.7,0.5-1.7,0.8-2.9,0.8H51.8l-0.3,0.6
		c-1,2.2-1.8,3.8-2.3,4.7c-0.6,0.9-1.3,1.8-2.2,2.6c-2.4,2.2-5.1,3.3-8.2,3.3c-2.5,0-4.6-0.7-6.2-2.2c-1.6-1.5-2.4-3.4-2.4-5.7
		c0-1.4,0.3-2.8,1-4c0.7-1.3,1.6-2.2,2.8-2.9c1.6-0.9,3.7-1.3,6.3-1.3h7.5L54.3,44h-2.6h-0.6c-1.6,0-2.4-0.7-2.4-2.1
		c0-0.9,0.3-1.7,1-2.2c0.7-0.5,1.7-0.8,2.9-0.8h3.7l1-2.4c1.9-4.6,4.7-6.9,8.5-6.9c2,0,3.6,0.6,4.9,1.8c1.3,1.2,1.9,2.8,1.9,4.6
		c0,2.4-0.9,4.3-2.8,5.8C68,43.3,65.5,44,62.5,44H60.3z M45.8,64.8h-5.6c-2.8,0-4.2,1-4.2,3c0,0.8,0.3,1.5,0.9,2
		c0.6,0.5,1.4,0.8,2.3,0.8c1.3,0,2.5-0.5,3.7-1.6C44,68.1,45,66.6,45.8,64.8z M62.4,38.9h1c1.1,0,2-0.3,2.7-0.8
		c0.8-0.5,1.1-1.2,1.1-2c0-1.1-0.5-1.7-1.6-1.7c-1,0-1.9,1-2.7,3L62.4,38.9z"/>
	<path class="st2" d="M80.2,61.6h3.1c2.3,0,3.4,0.8,3.4,2.4c0,1.1-0.4,2-1.2,2.6c-0.8,0.6-1.9,0.9-3.4,0.9h-4.3
		c-1.6,0-2.8-0.3-3.8-1c-0.9-0.7-1.4-1.5-1.4-2.7c0-0.6,0.2-1.4,0.6-2.3l4.5-11l0.3-0.8c0.8-2,2.2-3.1,4-3.1c0.8,0,1.4,0.3,2,0.8
		c0.6,0.5,0.8,1.1,0.8,1.8c0,0.6-0.2,1.5-0.7,2.7L80.2,61.6z M83.8,38.1c1,0,1.9,0.4,2.7,1.1c0.7,0.7,1.1,1.6,1.1,2.7
		c0,1-0.4,1.9-1.1,2.7c-0.7,0.7-1.6,1.1-2.7,1.1c-1,0-1.9-0.4-2.7-1.1c-0.7-0.7-1.1-1.6-1.1-2.7c0-1,0.4-1.9,1.1-2.7
		C81.9,38.4,82.7,38.1,83.8,38.1z"/>
	<path class="st2" d="M94.6,53.6l6.3-8.6l0.5-0.7c1-1.5,2.2-2.3,3.5-2.3c0.9,0,1.5,0.3,2.1,0.8c0.5,0.5,0.8,1.2,0.8,2
		c0,0.9-0.5,2.1-1.6,3.5l-10,13c-1.1,1.5-2.4,2.2-4,2.2c-1.3,0-2.3-0.4-3-1.3c-0.7-0.9-1.1-2.1-1.1-3.7c0-0.3,0-0.6,0-0.8l1-10.8
		c0.1-1.5,0.5-2.6,1.2-3.4c0.7-0.8,1.6-1.2,2.7-1.2c1.7,0,2.6,0.9,2.6,2.6c0,0.3,0,0.7-0.1,1.3L94.6,53.6z"/>
	<path class="st2" d="M112.9,55.4c0,1.4,1,2,3.1,2h8.1c2.3,0,3.4,0.8,3.4,2.4c0,1.1-0.4,2-1.2,2.6c-0.8,0.6-1.9,0.9-3.4,0.9h-7.7
		c-2.9,0-5-0.7-6.5-2.1c-1.5-1.4-2.2-3.5-2.2-6.2c0-3.5,1.2-6.5,3.5-9c2.4-2.5,5.2-3.8,8.4-3.8c2.4,0,4.3,0.6,5.7,1.9
		c1.4,1.2,2.2,2.9,2.2,4.9c0,2.4-1,4.3-3,5.4c-1.1,0.7-2.8,1-4.9,1H112.9z M114.2,50.5h3c1.9,0,2.9-0.4,2.8-1.3
		c-0.1-1-0.7-1.4-1.9-1.4C116.5,47.7,115.1,48.6,114.2,50.5z"/>
</g>
</svg>
